<?xml version="1.0" encoding="UTF-8"?><svg id="b" xmlns="http://www.w3.org/2000/svg" viewBox="0 0 223.763 50"><defs><style>.d{fill:#f96700;}.e{fill:#fff;}</style></defs><g id="c"><polygon class="d" points="143.703 26.57 138.748 49.98 138.748 49.985 138.744 50 177.581 50 178.484 45.827 152.413 45.821 153.59 40.354 168.552 40.354 169.387 36.214 154.472 36.214 155.605 30.707 155.607 30.707 181.02 30.658 181.886 26.577 143.703 26.57"/><path class="d" d="M28.872,30.707h-12.011l-1.8,8.574h12.012l1.799-8.574ZM41.364,31.224c0,.517-.064,1.073-.185,1.663l-.881,4.215c-.565,2.611-1.998,4.446-4.299,5.504-.954.443-2.057.717-3.305.815H14.18l-1.397,6.579H0l4.96-23.43h31.296c3.403.218,5.107,1.772,5.107,4.655"/><path class="d" d="M59.283,30.707l-3.193,15.153h11.165l3.195-15.153h-11.167ZM77.835,26.57c3.402.218,5.105,1.772,5.105,4.655,0,.517-.061,1.073-.183,1.663l-2.278,10.791c-.538,2.638-1.971,4.488-4.299,5.544-.955.444-2.056.706-3.305.778h-24.172c-3.429-.197-5.141-1.749-5.141-4.659,0-.516.061-1.07.185-1.663l2.277-10.791c.561-2.636,1.996-4.472,4.295-5.505.982-.444,2.082-.717,3.311-.812h24.205Z"/><path class="d" d="M126.615,50h-41.657l4.959-23.43h12.783l-4.077,19.365h4.777l4.113-19.365h12.744l-4.075,19.365h4.81l4.078-19.365h12.783l-3.599,17.108c-.563,2.614-2.008,4.45-4.334,5.508-.957.444-2.057.716-3.306.815"/><path class="d" d="M205.764,39.281h-8.299l1.668-7.963.128-.611h12.015l-1.8,8.574h-3.711ZM221.139,27.093c-.012-.004-.026-.009-.039-.015-.133-.059-.289-.107-.438-.154-.21-.066-.429-.125-.66-.172-.08-.016-.152-.035-.234-.049-.344-.061-.71-.109-1.114-.133h-31.295l-4.959,23.43h12.785l1.394-6.579h9.979l1.264,6.579h12.966l-1.609-7.802c1.846-1.096,3.02-2.795,3.516-5.096l.883-4.215c.121-.59.183-1.146.183-1.663,0-2.06-.885-3.427-2.624-4.131"/><polygon class="e" points="90.803 22.402 138.74 22.402 83.8 0 100.249 16.004 90.803 22.402"/></g></svg>