<?xml version="1.0" encoding="UTF-8" standalone="no"?>
<svg width="486px" height="382px" viewBox="0 0 486 382" version="1.1" xmlns="http://www.w3.org/2000/svg" xmlns:xlink="http://www.w3.org/1999/xlink">
    <!-- Generator: Sketch 49.3 (51167) - http://www.bohemiancoding.com/sketch -->
    <title>Group 2</title>
    <desc>Created with Sketch.</desc>
    <defs>
        <path d="M33.2241951,0.3553 L21.5494024,57.848825 C20.5049634,62.9907 15.5334146,68.218075 10.4458171,69.524325 L0.27395122,72.135875 L0.27347561,72.13635 C0.27347561,72.13635 0.730060976,77.05545 7.67919512,75.510275 L9.71480488,74.9322 C9.71670732,74.93125 9.71860976,74.930775 9.72003659,74.9303 C10.3877927,74.70135 11.0579268,74.515625 11.7266341,74.3603 L15.3774146,73.323375 C20.4298171,71.8884 25.3880488,66.5589 26.4500854,61.420825 L38.6875244,2.25245 L33.2241951,0.3553" id="path-1"></path>
    </defs>
    <g id="Page-1" stroke="none" stroke-width="1" fill="none" fill-rule="evenodd">
        <g id="Artboard" transform="translate(-145.000000, -226.000000)">
            <g id="Group-2" transform="translate(147.000000, 228.000000)">
                <g id="iStock-137809834" transform="translate(112.000000, 2.000000)">
                    <path d="M156.384505,254.32155 C148.136885,254.006048 135.707803,264.780718 128.037659,268.987417 C118.838061,273.885557 110.446548,277.314683 100.554645,280.686229 C80.7717922,287.42932 60.2956819,292.645817 39.79146,298.611811 C32.9279727,301.349021 12.4814032,305.816973 27.2199144,313.130634 C37.5449246,318.025918 47.9857159,319.925119 58.3112025,324.820404 C67.1367753,329.658584 74.4343229,335.187252 83.2889601,339.276411 C92.8354255,344.891213 98.6335357,350.363729 105.815779,358.888481 C112.305717,365.886639 120.98835,374.468496 129.900163,377.060089 C141.032783,380.485884 145.790768,373.917913 154.297109,367.493179 C162.025858,361.788438 172.609589,359.943487 181.751535,356.542913 C191.642962,353.171843 201.5058,350.548842 211.397703,347.177297 C228.124029,341.817086 244.043222,337.92589 261.433264,334.841294 C269.738537,333.658755 277.294805,332.447663 284.965425,328.24144 C300.306666,319.828042 282.512104,313.897738 274.435535,309.08811 C267.109876,304.307987 259.840916,298.030297 252.514781,293.249697 C240.804685,285.301701 226.787543,278.765613 213.490816,273.006147 C196.474799,266.355375 179.081422,249.939731 161.056251,250.000166 L156.384505,254.32155" id="Fill-1" fill-opacity="0.299365942" fill="#BBBDBB"></path>
                    <path d="M148,269.01329 C148,269.01329 155.637094,271.261853 161,268.970182 L151.8412,268 L148,269.01329" id="Fill-2" fill="#5C5E5E"></path>
                    <path d="M171,253 C171,262.38849 164.060612,270 155.5,270 C146.939857,270 140,262.38849 140,253 C140,243.61151 146.939857,236 155.5,236 C164.060612,236 171,243.61151 171,253" id="Fill-3" fill="#2B2D2C"></path>
                    <path d="M154,269.993079 C154,269.993079 137.107976,270.835059 137.000504,253.944889 C136.893033,237.054247 154,236 154,236 C154,236 142.37645,245.820097 144.209645,255.869008 C146.043315,265.917919 147.763333,264.447174 154,269.993079" id="Fill-4" fill="#5C5E5E"></path>
                    <path d="M154,236 C154,236 143.726325,241.839258 144.005592,252.81275 C144.284859,263.78577 148.170724,267.874527 154,270 L154,236" id="Fill-5" fill="#2B2D2C"></path>
                    <path d="M162,253 C162,256.866207 159.313721,260 155.999529,260 C152.686279,260 150,256.866207 150,253 C150,249.134271 152.686279,246 155.999529,246 C159.313721,246 162,249.134271 162,253" id="Fill-6" fill="#888C8C"></path>
                    <path d="M153.440063,269.863522 C153.440063,269.863522 157.484385,270.644207 162,268.471249 L153,268 L153.440063,269.863522" id="Fill-7" fill="#2B2D2C"></path>
                    <path d="M270.265243,61.2735302 C269.759262,60.112527 268.601252,57.9920442 265.957804,57.297802 C265.20637,57.1005259 264.464829,57 263.755324,57 C259.058269,57 256.991471,61.672802 256.314002,63.453007 L242,70.6266855 L262.931808,78 L270.285972,69.4354773 L270.464055,69.100863 C270.686894,68.6841289 271.655515,64.4639293 270.265243,61.2735302 Z M266.55424,66.6481257 L259.385226,72.1949838 L251.521782,69.8130394 L259.258495,65.9354773 L259.462489,65.163363 C259.473796,65.123247 260.565849,61.1300566 263.755324,61.1300566 C264.162841,61.1300566 264.601924,61.1914105 265.061265,61.3117584 C266.598526,61.7152778 266.918886,62.4444444 267.023475,62.6837244 C267.555368,63.8914509 266.948096,65.7584951 266.55424,66.6481257 Z" id="Fill-8" fill="#DADBD8"></path>
                    <path d="M265.166819,60.0935018 C260.198487,59.1787012 259.083166,65.2778595 259.083166,65.2778595 L253,68.6326161 L253,69 L259.521606,65.7281853 L259.73231,64.9299913 C259.743989,64.8885204 260.871961,60.7604523 264.16634,60.7604523 C264.587262,60.7604523 265.040786,60.8238785 265.515235,60.9482914 C267.103058,61.3654405 267.433956,62.1192361 267.541984,62.3665982 C268.091372,63.615118 267.464126,65.5452252 267.057316,66.4649047 C267.057316,66.4649047 270.135639,61.0083023 265.166819,60.0935018" id="Fill-9" fill="#A2A5A5"></path>
                    <path d="M272,67 C272,67 271.568776,68.9107901 270.708674,69.8775444 C269.848572,70.8442988 265,76 265,76 L266.20968,76 L271.353399,69.839841 C271.353399,69.839841 271.964338,69.3100596 272,67" id="Fill-10" fill="#A2A5A5"></path>
                    <polyline id="Fill-11" fill="#757777" points="205.651509 53 218 11.4132096 215.262386 9 204 52.9411181 205.651509 53"></polyline>
                    <path d="M279.349525,292 C279.349525,292 286.678939,289.597247 289.69391,280.087042 C292.70888,270.576837 327.932718,95.5890704 327.932718,95.5890704 L357,52.8982369 L353.245805,51 L325.442297,95.2376683 L282.554418,279.769401 L277,287.84309 L279.349525,292" id="Fill-12" fill="#757777"></path>
                    <path d="M254,330.437705 C254,330.437705 262.521739,332.351997 268,329.116427 C268,329.116427 256.063285,325.87538 254,330.437705" id="Fill-13" fill="#101110"></path>
                    <path d="M256,293 L269.968114,295.906999 C269.968114,295.906999 287.406178,311.862377 267.36092,328.517614 L256,330 L256,293" id="Fill-14" fill="#101110"></path>
                    <path d="M243,311.499765 C243,301.282292 249.044188,293 256.5,293 C263.955812,293 270,301.282292 270,311.499765 C270,321.717238 263.955812,330 256.5,330 C249.044188,330 243,321.717238 243,311.499765" id="Fill-15" fill="#2B2D2C"></path>
                    <path d="M248,311.500234 C248,307.358062 250.46248,304 253.5,304 C256.53752,304 259,307.358062 259,311.500234 C259,315.641938 256.53752,319 253.5,319 C250.46248,319 248,315.641938 248,311.500234" id="Fill-16" fill="#888C8C"></path>
                    <path d="M253.015198,308 C253.015198,308 250.691359,308.142634 251.034596,311.706623 C251.377833,315.27108 254,313.616521 254,313.616521 L253.015198,308" id="Fill-17" fill="#757777"></path>
                    <path d="M254.996642,310.932711 C255.060067,312.589431 254.217415,313.962398 253.114518,313.999225 C252.011117,314.036523 251.06628,312.723517 251.003358,311.06727 C250.939933,309.411022 251.782585,308.038055 252.885482,308.000756 C253.988379,307.96393 254.933217,309.276464 254.996642,310.932711" id="Fill-18" fill="#BBBDBB"></path>
                    <path d="M65,296 C65,305.941019 57.6131387,314 48.5,314 C39.3873336,314 32,305.941019 32,296 C32,286.058981 39.3873336,278 48.5,278 C57.6131387,278 65,286.058981 65,296" id="Fill-19" fill="#2B2D2C"></path>
                    <path d="M48,313.991291 C48,313.991291 29.1177041,314.940175 29.000547,297.029328 C28.8838782,279.118007 47.4679118,278 47.4679118,278 C47.4679118,278 32.2824083,283.58956 34.3912348,299.06969 C36.1202773,311.760962 38.7665617,309.648592 48,313.991291" id="Fill-20" fill="#5C5E5E"></path>
                    <path d="M48,314 C48,314 30.8076978,313.494922 33.234755,295.270447 C35.6618122,277.045973 47.0791745,278.008793 47.0791745,278.008793 L48,314" id="Fill-21" fill="#2B2D2C"></path>
                    <path d="M56,295.499758 C56,299.641712 53.0895882,303 49.4997591,303 C45.9104118,303 43,299.641712 43,295.499758 C43,291.357804 45.9104118,288 49.4997591,288 C53.0895882,288 56,291.357804 56,295.499758" id="Fill-22" fill="#5C5E5E"></path>
                    <path d="M49.9179035,293 C49.9179035,293 46.7198802,293.058114 47.0198571,296.640113 C47.319834,300.22258 51,298.661461 51,298.661461 L49.9179035,293" id="Fill-23" fill="#434544"></path>
                    <path d="M53,296.000236 C53,297.65728 51.8809301,299 50.4997405,299 C49.1190699,299 48,297.65728 48,296.000236 C48,294.343192 49.1190699,293 50.4997405,293 C51.8809301,293 53,294.343192 53,296.000236" id="Fill-24" fill="#888C8C"></path>
                    <path d="M127,366 C127,366 131.602502,368.417725 140,367.936681 L135.272051,366.253222 L127,366" id="Fill-25" fill="#5C5E5E"></path>
                    <path d="M157,349 C157,359.493308 149.164952,368 139.49976,368 C129.835527,368 122,359.493308 122,349 C122,338.506692 129.835527,330 139.49976,330 C149.164952,330 157,338.506692 157,349" id="Fill-26" fill="#2B2D2C"></path>
                    <path d="M138,367.992255 C138,367.992255 119.120744,368.933746 119.000564,350.056141 C118.880385,331.178536 138,330 138,330 C138,330 125.009064,340.975774 127.057886,352.206754 C129.106708,363.437734 131.029582,361.79371 138,367.992255" id="Fill-27" fill="#5C5E5E"></path>
                    <path d="M137,330 C137,330 125.698858,336.526291 126.006155,348.790631 C126.313453,361.054493 130.588072,365.624283 137,368 L137,330" id="Fill-28" fill="#2B2D2C"></path>
                    <path d="M147,348.5 C147,352.641957 144.090048,356 140.500231,356 C136.910413,356 134,352.641957 134,348.5 C134,344.358043 136.910413,341 140.500231,341 C144.090048,341 147,344.358043 147,348.5" id="Fill-29" fill="#888C8C"></path>
                    <path d="M141.918422,346 C141.918422,346 138.719877,346.05765 139.019854,349.639929 C139.319312,353.222676 143,351.661434 143,351.661434 L141.918422,346" id="Fill-30" fill="#757777"></path>
                    <path d="M144,349 C144,350.657174 142.88093,352 141.50026,352 C140.11907,352 139,350.657174 139,349 C139,347.342826 140.11907,346 141.50026,346 C142.88093,346 144,347.342826 144,349" id="Fill-31" fill="#BBBDBB"></path>
                    <path d="M137.554933,367.87453 C137.554933,367.87453 142.431614,368.724486 147,366 L137,367.000082 L137.554933,367.87453" id="Fill-32" fill="#2B2D2C"></path>
                    <polyline id="Fill-33" fill="#757777" points="46 272.708289 51.2460724 276 174.349036 232.195215 177 228 46 272.708289"></polyline>
                    <polyline id="Fill-34" fill="#A2A5A5" points="157 327.971451 58.5909864 271 52 272.653085 144.930098 330 157 327.971451"></polyline>
                    <polyline id="Fill-35" fill="#5C5E5E" points="52 272 52.2955044 274.885379 142.34189 331 145 329.520697 52 272"></polyline>
                    <polyline id="Fill-36" fill="#A2A5A5" points="257 288.504177 154.032828 241 141 244.197028 240.463903 294 257 288.504177"></polyline>
                    <polyline id="Fill-37" fill="#5C5E5E" points="141.474989 244 141 246.9032 237.463704 296 241 294.226882 141.474989 244"></polyline>
                    <path d="M170.780577,223.689482 L198.48017,54.8211049 L204.583881,55.8196037 L176.284812,228.34661 L45.7289499,272.56082 L125.058168,321.944709 L271.634786,284.321445 C276.724147,283.015131 281.697418,277.787501 282.742219,272.645374 L319.008608,94.0983993 L320.074343,91.8444142 L349.896842,45 L355,48.4890455 L324.987667,95.7125282 L287.644599,276.217549 C286.582195,281.355875 281.622245,286.685636 276.568092,288.120681 L122.063168,332 L32,270.689704 L170.780577,223.689482" id="Fill-38" fill="#ADB0B1"></path>
                    <g id="Group-220" transform="translate(261.000000, 215.000000)">
                        <mask id="mask-2" fill="white">
                            <use xlink:href="#path-1"></use>
                        </mask>
                        <g id="Clip-40"></g>
                        <polyline id="Fill-39" fill="#888C8C" mask="url(#mask-2)" points="-3793.18518 1390.25755 -19.3777683 18.46515 2.79610976 79.30885 -3771.01083 1451.10172"></polyline>
                        <polyline id="Fill-41" fill="#888C8C" mask="url(#mask-2)" points="-19.3777683 18.46515 -19.0201098 18.335 3.15376829 79.179175 2.79610976 79.30885"></polyline>
                        <polyline id="Fill-42" fill="#878C8C" mask="url(#mask-2)" points="-19.0201098 18.335 -18.6629268 18.205325 3.51095122 79.049025 3.15376829 79.179175"></polyline>
                        <polyline id="Fill-43" fill="#868B8B" mask="url(#mask-2)" points="-18.6629268 18.205325 -18.3052683 18.075175 3.86860976 78.91935 3.51095122 79.049025"></polyline>
                        <polyline id="Fill-44" fill="#868A8A" mask="url(#mask-2)" points="-18.3052683 18.075175 -17.9476098 17.945025 4.22626829 78.7892 3.86860976 78.91935"></polyline>
                        <polyline id="Fill-45" fill="#858989" mask="url(#mask-2)" points="-17.9476098 17.945025 -17.5899512 17.81535 4.58392683 78.65905 4.22626829 78.7892"></polyline>
                        <polyline id="Fill-46" fill="#848888" mask="url(#mask-2)" points="-17.5899512 17.81535 -17.2322927 17.6852 4.94158537 78.529375 4.58392683 78.65905"></polyline>
                        <polyline id="Fill-47" fill="#838787" mask="url(#mask-2)" points="-17.2322927 17.6852 -16.8746341 17.55505 5.2992439 78.399225 4.94158537 78.529375"></polyline>
                        <polyline id="Fill-48" fill="#828686" mask="url(#mask-2)" points="-16.8746341 17.55505 -16.5169756 17.425375 5.65690244 78.269075 5.2992439 78.399225"></polyline>
                        <polyline id="Fill-49" fill="#818586" mask="url(#mask-2)" points="-16.5169756 17.425375 -16.1593171 17.295225 6.01408537 78.1394 5.65690244 78.269075"></polyline>
                        <polyline id="Fill-50" fill="#808484" mask="url(#mask-2)" points="-16.1593171 17.295225 -15.8021341 17.165075 6.3717439 78.00925 6.01456098 78.1394"></polyline>
                        <polyline id="Fill-51" fill="#7F8384" mask="url(#mask-2)" points="-15.8021341 17.165075 -15.4444756 17.0354 6.72940244 77.8791 6.3717439 78.00925"></polyline>
                        <polyline id="Fill-52" fill="#7E8283" mask="url(#mask-2)" points="-15.4444756 17.0354 -15.0868171 16.90525 7.08706098 77.749425 6.72940244 77.8791"></polyline>
                        <polyline id="Fill-53" fill="#7E8283" mask="url(#mask-2)" points="-15.0868171 16.90525 -14.7291585 16.7751 7.44471951 77.619275 7.08706098 77.749425"></polyline>
                        <polyline id="Fill-54" fill="#7E8181" mask="url(#mask-2)" points="-14.7291585 16.7751 -14.3715 16.645425 7.80237805 77.489125 7.44471951 77.619275"></polyline>
                        <polyline id="Fill-55" fill="#7D8080" mask="url(#mask-2)" points="-14.3715 16.645425 -14.0138415 16.515275 8.16003659 77.35945 7.80237805 77.489125"></polyline>
                        <polyline id="Fill-56" fill="#7D8080" mask="url(#mask-2)" points="-14.0138415 16.515275 -13.6561829 16.3856 8.51769512 77.2293 8.16003659 77.35945"></polyline>
                        <polyline id="Fill-57" fill="#7C7F7F" mask="url(#mask-2)" points="-13.6561829 16.3856 -13.299 16.25545 8.87487805 77.09915 8.51769512 77.2293"></polyline>
                        <polyline id="Fill-58" fill="#7B7E7E" mask="url(#mask-2)" points="-13.299 16.25545 -12.9413415 16.1253 9.23253659 76.969475 8.87487805 77.09915"></polyline>
                        <polyline id="Fill-59" fill="#7A7D7D" mask="url(#mask-2)" points="-12.9413415 16.1253 -12.5836829 15.995625 9.59019512 76.839325 9.23253659 76.969475"></polyline>
                        <polyline id="Fill-60" fill="#7A7C7D" mask="url(#mask-2)" points="-12.5836829 15.995625 -12.2260244 15.865475 9.94785366 76.709175 9.59019512 76.839325"></polyline>
                        <polyline id="Fill-61" fill="#797B7B" mask="url(#mask-2)" points="-12.2260244 15.865475 -11.8683659 15.735325 10.3055122 76.5795 9.94785366 76.709175"></polyline>
                        <polyline id="Fill-62" fill="#787A7A" mask="url(#mask-2)" points="-11.8683659 15.735325 -11.5107073 15.60565 10.6631707 76.44935 10.3055122 76.5795"></polyline>
                        <polyline id="Fill-63" fill="#777A7A" mask="url(#mask-2)" points="-11.5107073 15.60565 -11.1530488 15.4755 11.0208293 76.3192 10.6631707 76.44935"></polyline>
                        <polyline id="Fill-64" fill="#767979" mask="url(#mask-2)" points="-11.1530488 15.4755 -10.7953902 15.34535 11.3780122 76.189525 11.0208293 76.3192"></polyline>
                        <polyline id="Fill-65" fill="#767878" mask="url(#mask-2)" points="-10.7953902 15.34535 -10.4382073 15.215675 11.7356707 76.059375 11.3780122 76.189525"></polyline>
                        <polyline id="Fill-66" fill="#757777" mask="url(#mask-2)" points="-10.4382073 15.215675 -10.0805488 15.085525 12.0933293 75.929225 11.7356707 76.059375"></polyline>
                        <polyline id="Fill-67" fill="#747676" mask="url(#mask-2)" points="-10.0805488 15.085525 -9.72289024 14.955375 12.4509878 75.79955 12.0933293 75.929225"></polyline>
                        <polyline id="Fill-68" fill="#737576" mask="url(#mask-2)" points="-9.72289024 14.955375 -9.36523171 14.8257 12.8086463 75.6694 12.4509878 75.79955"></polyline>
                        <polyline id="Fill-69" fill="#727474" mask="url(#mask-2)" points="-9.36523171 14.8257 -9.00757317 14.69555 13.1663049 75.53925 12.8086463 75.6694"></polyline>
                        <polyline id="Fill-70" fill="#717373" mask="url(#mask-2)" points="-9.00757317 14.69555 -8.64991463 14.5654 13.5239634 75.409575 13.1663049 75.539725"></polyline>
                        <polyline id="Fill-71" fill="#6F7172" mask="url(#mask-2)" points="-8.64991463 14.5654 -8.2922561 14.435725 13.8811463 75.279425 13.5239634 75.409575"></polyline>
                        <polyline id="Fill-72" fill="#6F7171" mask="url(#mask-2)" points="-8.2922561 14.435725 -7.93507317 14.305575 14.2388049 75.14975 13.8811463 75.279425"></polyline>
                        <polyline id="Fill-73" fill="#6E6F6F" mask="url(#mask-2)" points="-7.93507317 14.305575 -7.57741463 14.175425 14.5964634 75.0196 14.2388049 75.14975"></polyline>
                        <polyline id="Fill-74" fill="#6D6F6E" mask="url(#mask-2)" points="-7.57741463 14.175425 -7.2197561 14.04575 14.954122 74.88945 14.5964634 75.0196"></polyline>
                        <polyline id="Fill-75" fill="#6C6E6E" mask="url(#mask-2)" points="-7.2197561 14.04575 -6.86209756 13.9156 15.3117805 74.759775 14.954122 74.88945"></polyline>
                        <polyline id="Fill-76" fill="#6B6C6C" mask="url(#mask-2)" points="-6.86209756 13.9156 -6.50443902 13.78545 15.669439 74.629625 15.3117805 74.759775"></polyline>
                        <polyline id="Fill-77" fill="#6A6C6B" mask="url(#mask-2)" points="-6.50443902 13.78545 -6.14678049 13.655775 16.0270976 74.499475 15.669439 74.629625"></polyline>
                        <polyline id="Fill-78" fill="#696A6A" mask="url(#mask-2)" points="-6.14678049 13.655775 -5.78912195 13.525625 16.3842805 74.3698 16.0270976 74.499475"></polyline>
                        <polyline id="Fill-79" fill="#686969" mask="url(#mask-2)" points="-5.78912195 13.525625 -5.43193902 13.395475 16.741939 74.23965 16.3842805 74.3698"></polyline>
                        <polyline id="Fill-80" fill="#686969" mask="url(#mask-2)" points="-5.43193902 13.395475 -5.07428049 13.2658 17.0995976 74.1095 16.741939 74.23965"></polyline>
                        <polyline id="Fill-81" fill="#676868" mask="url(#mask-2)" points="-5.07428049 13.2658 -4.71662195 13.13565 17.4572561 73.979825 17.0995976 74.1095"></polyline>
                        <polyline id="Fill-82" fill="#666767" mask="url(#mask-2)" points="-4.71662195 13.13565 -4.35896341 13.0055 17.8149146 73.849675 17.4572561 73.979825"></polyline>
                        <polyline id="Fill-83" fill="#656666" mask="url(#mask-2)" points="-4.35896341 13.0055 -4.00130488 12.875825 18.1725732 73.719525 17.8149146 73.849675"></polyline>
                        <polyline id="Fill-84" fill="#636565" mask="url(#mask-2)" points="-4.00130488 12.875825 -3.64364634 12.745675 18.5302317 73.58985 18.1725732 73.719525"></polyline>
                        <polyline id="Fill-85" fill="#636464" mask="url(#mask-2)" points="-3.64364634 12.745675 -3.2859878 12.616 18.8874146 73.4597 18.5302317 73.58985"></polyline>
                        <polyline id="Fill-86" fill="#616363" mask="url(#mask-2)" points="-3.2859878 12.616 -2.92880488 12.48585 19.2450732 73.32955 18.8874146 73.4597"></polyline>
                        <polyline id="Fill-87" fill="#606262" mask="url(#mask-2)" points="-2.92880488 12.48585 -2.57114634 12.3557 19.6027317 73.199875 19.2450732 73.32955"></polyline>
                        <polyline id="Fill-88" fill="#606161" mask="url(#mask-2)" points="-2.57114634 12.3557 -2.2134878 12.226025 19.9603902 73.069725 19.6027317 73.199875"></polyline>
                        <polyline id="Fill-89" fill="#5E6060" mask="url(#mask-2)" points="-2.2134878 12.226025 -1.85582927 12.095875 20.3180488 72.939575 19.9603902 73.069725"></polyline>
                        <polyline id="Fill-90" fill="#5D5F5F" mask="url(#mask-2)" points="-1.85582927 12.095875 -1.49817073 11.965725 20.6757073 72.8099 20.3180488 72.939575"></polyline>
                        <polyline id="Fill-91" fill="#5C5E5E" mask="url(#mask-2)" points="-1.49817073 11.965725 -1.1405122 11.83605 21.0333659 72.67975 20.6757073 72.8099"></polyline>
                        <polyline id="Fill-92" fill="#5B5D5D" mask="url(#mask-2)" points="-1.1405122 11.83605 -0.782853659 11.7059 21.3905488 72.5496 21.0333659 72.67975"></polyline>
                        <polyline id="Fill-93" fill="#5A5C5C" mask="url(#mask-2)" points="-0.782853659 11.7059 -0.425670732 11.57575 21.7482073 72.419925 21.3905488 72.5496"></polyline>
                        <polyline id="Fill-94" fill="#595B5B" mask="url(#mask-2)" points="-0.425670732 11.57575 -0.0680121951 11.446075 22.1058659 72.289775 21.7482073 72.419925"></polyline>
                        <polyline id="Fill-95" fill="#585A5A" mask="url(#mask-2)" points="-0.0680121951 11.446075 0.289646341 11.315925 22.4635244 72.159625 22.1058659 72.289775"></polyline>
                        <polyline id="Fill-96" fill="#585959" mask="url(#mask-2)" points="0.289646341 11.315925 0.647304878 11.185775 22.8211829 72.02995 22.4635244 72.159625"></polyline>
                        <polyline id="Fill-97" fill="#565858" mask="url(#mask-2)" points="0.647304878 11.185775 1.00496341 11.0561 23.1788415 71.8998 22.8211829 72.02995"></polyline>
                        <polyline id="Fill-98" fill="#565857" mask="url(#mask-2)" points="1.00496341 11.0561 1.36262195 10.92595 23.5365 71.770125 23.1788415 71.8998"></polyline>
                        <polyline id="Fill-99" fill="#545656" mask="url(#mask-2)" points="1.36262195 10.92595 1.72028049 10.7958 23.8936829 71.639975 23.5365 71.770125"></polyline>
                        <polyline id="Fill-100" fill="#545555" mask="url(#mask-2)" points="1.72028049 10.7958 2.07746341 10.666125 24.2513415 71.509825 23.8941585 71.639975"></polyline>
                        <polyline id="Fill-101" fill="#525454" mask="url(#mask-2)" points="2.07746341 10.666125 2.43512195 10.535975 24.609 71.38015 24.2513415 71.509825"></polyline>
                        <polyline id="Fill-102" fill="#515353" mask="url(#mask-2)" points="2.43512195 10.535975 2.79278049 10.405825 24.9666585 71.25 24.609 71.38015"></polyline>
                        <polyline id="Fill-103" fill="#505252" mask="url(#mask-2)" points="2.79278049 10.405825 3.15043902 10.27615 25.3243171 71.11985 24.9666585 71.25"></polyline>
                        <polyline id="Fill-104" fill="#4F5151" mask="url(#mask-2)" points="3.15043902 10.27615 3.50809756 10.146 25.6819756 70.990175 25.3243171 71.11985"></polyline>
                        <polyline id="Fill-105" fill="#4E504F" mask="url(#mask-2)" points="3.50809756 10.146 3.8657561 10.01585 26.0396341 70.860025 25.6819756 70.990175"></polyline>
                        <polyline id="Fill-106" fill="#4D4F4F" mask="url(#mask-2)" points="3.8657561 10.01585 4.22341463 9.886175 26.3972927 70.729875 26.0396341 70.860025"></polyline>
                        <polyline id="Fill-107" fill="#4C4E4E" mask="url(#mask-2)" points="4.22341463 9.886175 4.58059756 9.756025 26.7544756 70.6002 26.3972927 70.729875"></polyline>
                        <polyline id="Fill-108" fill="#4B4D4D" mask="url(#mask-2)" points="4.58059756 9.756025 4.9382561 9.625875 27.1121341 70.47005 26.7544756 70.6002"></polyline>
                        <polyline id="Fill-109" fill="#4A4C4C" mask="url(#mask-2)" points="4.9382561 9.625875 5.29591463 9.4962 27.4697927 70.3399 27.1121341 70.47005"></polyline>
                        <polyline id="Fill-110" fill="#4A4C4C" mask="url(#mask-2)" points="5.29639024 9.4962 5.58793902 9.390275 27.7618171 70.233975 27.4702683 70.340375"></polyline>
                        <polyline id="Fill-111" fill="#4B4D4D" mask="url(#mask-2)" points="5.58793902 9.390275 5.87996341 9.283875 28.0538415 70.12805 27.7618171 70.233975"></polyline>
                        <polyline id="Fill-112" fill="#4C4E4E" mask="url(#mask-2)" points="5.87996341 9.283875 6.1719878 9.17795 28.3458659 70.022125 28.0538415 70.12805"></polyline>
                        <polyline id="Fill-113" fill="#4D4F4F" mask="url(#mask-2)" points="6.1719878 9.17795 6.4640122 9.072025 28.6378902 69.915725 28.3458659 70.022125"></polyline>
                        <polyline id="Fill-114" fill="#4E504F" mask="url(#mask-2)" points="6.4640122 9.072025 6.75556098 8.965625 28.929439 69.8098 28.6374146 69.915725"></polyline>
                        <polyline id="Fill-115" fill="#4F5151" mask="url(#mask-2)" points="6.75556098 8.965625 7.04758537 8.8597 29.2214634 69.7034 28.929439 69.8098"></polyline>
                        <polyline id="Fill-116" fill="#505252" mask="url(#mask-2)" points="7.04758537 8.8597 7.33960976 8.7533 29.5134878 69.597475 29.2214634 69.7034"></polyline>
                        <polyline id="Fill-117" fill="#515353" mask="url(#mask-2)" points="7.33960976 8.7533 7.63115854 8.647375 29.8050366 69.49155 29.5134878 69.597475"></polyline>
                        <polyline id="Fill-118" fill="#525454" mask="url(#mask-2)" points="7.63115854 8.647375 7.92318293 8.54145 30.097061 69.38515 29.8050366 69.49155"></polyline>
                        <polyline id="Fill-119" fill="#545555" mask="url(#mask-2)" points="7.92318293 8.54145 8.21520732 8.43505 30.3890854 69.279225 30.097061 69.38515"></polyline>
                        <polyline id="Fill-120" fill="#545656" mask="url(#mask-2)" points="8.21520732 8.43505 8.50723171 8.329125 30.6811098 69.172825 30.3890854 69.279225"></polyline>
                        <polyline id="Fill-121" fill="#565857" mask="url(#mask-2)" points="8.50723171 8.329125 8.79878049 8.2232 30.9726585 69.0669 30.6811098 69.172825"></polyline>
                        <polyline id="Fill-122" fill="#565858" mask="url(#mask-2)" points="8.79878049 8.2232 9.09080488 8.1168 31.2646829 68.960975 30.9726585 69.0669"></polyline>
                        <polyline id="Fill-123" fill="#585959" mask="url(#mask-2)" points="9.09080488 8.1168 9.38282927 8.010875 31.5567073 68.854575 31.2646829 68.960975"></polyline>
                        <polyline id="Fill-124" fill="#585A5A" mask="url(#mask-2)" points="9.38282927 8.010875 9.67485366 7.904475 31.8482561 68.74865 31.5567073 68.854575"></polyline>
                        <polyline id="Fill-125" fill="#595B5B" mask="url(#mask-2)" points="9.67485366 7.904475 9.96640244 7.79855 32.1402805 68.642725 31.8487317 68.74865"></polyline>
                        <polyline id="Fill-126" fill="#5A5C5C" mask="url(#mask-2)" points="9.96640244 7.79855 10.2584268 7.692625 32.4323049 68.536325 32.1402805 68.642725"></polyline>
                        <polyline id="Fill-127" fill="#5B5D5D" mask="url(#mask-2)" points="10.2584268 7.692625 10.5504512 7.586225 32.7243293 68.4304 32.4323049 68.536325"></polyline>
                        <polyline id="Fill-128" fill="#5C5E5E" mask="url(#mask-2)" points="10.5504512 7.586225 10.842 7.4803 33.015878 68.324 32.7243293 68.4304"></polyline>
                        <polyline id="Fill-129" fill="#5D5F5F" mask="url(#mask-2)" points="10.842 7.4803 11.1340244 7.374375 33.3079024 68.218075 33.015878 68.324"></polyline>
                        <polyline id="Fill-130" fill="#5E6060" mask="url(#mask-2)" points="11.1340244 7.374375 11.4260488 7.267975 33.5999268 68.11215 33.3079024 68.218075"></polyline>
                        <polyline id="Fill-131" fill="#606161" mask="url(#mask-2)" points="11.4260488 7.267975 11.7180732 7.16205 33.8919512 68.00575 33.5999268 68.11215"></polyline>
                        <polyline id="Fill-132" fill="#606262" mask="url(#mask-2)" points="11.7180732 7.16205 12.009622 7.05565 34.1835 67.899825 33.8919512 68.00575"></polyline>
                        <polyline id="Fill-133" fill="#616363" mask="url(#mask-2)" points="12.009622 7.05565 12.3016463 6.949725 34.4755244 67.7939 34.1835 67.899825"></polyline>
                        <polyline id="Fill-134" fill="#636464" mask="url(#mask-2)" points="12.3016463 6.949725 12.5936707 6.8438 34.7675488 67.6875 34.4755244 67.7939"></polyline>
                        <polyline id="Fill-135" fill="#636565" mask="url(#mask-2)" points="12.5936707 6.8438 12.8856951 6.7374 35.0590976 67.581575 34.7675488 67.6875"></polyline>
                        <polyline id="Fill-136" fill="#656666" mask="url(#mask-2)" points="12.8856951 6.7374 13.1772439 6.631475 35.351122 67.475175 35.0590976 67.581575"></polyline>
                        <polyline id="Fill-137" fill="#666767" mask="url(#mask-2)" points="13.1772439 6.631475 13.4692683 6.525075 35.6431463 67.36925 35.351122 67.475175"></polyline>
                        <polyline id="Fill-138" fill="#666868" mask="url(#mask-2)" points="13.4692683 6.525075 13.7612927 6.41915 35.9351707 67.263325 35.6431463 67.36925"></polyline>
                        <polyline id="Fill-139" fill="#676969" mask="url(#mask-2)" points="13.7612927 6.41915 14.0528415 6.313225 36.2267195 67.156925 35.9351707 67.263325"></polyline>
                        <polyline id="Fill-140" fill="#676A69" mask="url(#mask-2)" points="14.0528415 6.313225 14.3448659 6.206825 36.5187439 67.051 36.2267195 67.156925"></polyline>
                        <polyline id="Fill-141" fill="#686B6A" mask="url(#mask-2)" points="14.3448659 6.206825 14.6368902 6.1009 36.8107683 66.9446 36.5187439 67.051"></polyline>
                        <polyline id="Fill-142" fill="#6A6B6B" mask="url(#mask-2)" points="14.6368902 6.1009 14.9289146 5.994975 37.1023171 66.838675 36.8107683 66.9446"></polyline>
                        <polyline id="Fill-143" fill="#6A6C6C" mask="url(#mask-2)" points="14.9289146 5.994975 15.2204634 5.888575 37.3943415 66.73275 37.1023171 66.838675"></polyline>
                        <polyline id="Fill-144" fill="#6B6E6D" mask="url(#mask-2)" points="15.2204634 5.888575 15.5124878 5.78265 37.6863659 66.62635 37.3943415 66.73275"></polyline>
                        <polyline id="Fill-145" fill="#6B6E6E" mask="url(#mask-2)" points="15.5124878 5.78265 15.8045122 5.67625 37.9783902 66.520425 37.6863659 66.62635"></polyline>
                        <polyline id="Fill-146" fill="#6C6F6F" mask="url(#mask-2)" points="15.8045122 5.67625 16.0965366 5.570325 38.269939 66.4145 37.9783902 66.520425"></polyline>
                        <polyline id="Fill-147" fill="#6D7070" mask="url(#mask-2)" points="16.0965366 5.570325 16.3880854 5.4644 38.5619634 66.3081 38.269939 66.4145"></polyline>
                        <polyline id="Fill-148" fill="#6E7070" mask="url(#mask-2)" points="16.3880854 5.4644 16.6801098 5.358 38.8539878 66.202175 38.5619634 66.3081"></polyline>
                        <polyline id="Fill-149" fill="#6F7172" mask="url(#mask-2)" points="16.6801098 5.358 16.9721341 5.252075 39.1460122 66.095775 38.8539878 66.202175"></polyline>
                        <polyline id="Fill-150" fill="#707373" mask="url(#mask-2)" points="16.9721341 5.252075 17.2636829 5.14615 39.437561 65.98985 39.1460122 66.095775"></polyline>
                        <polyline id="Fill-151" fill="#717474" mask="url(#mask-2)" points="17.2636829 5.14615 17.5557073 5.03975 39.7295854 65.883925 39.437561 65.98985"></polyline>
                        <polyline id="Fill-152" fill="#727575" mask="url(#mask-2)" points="17.5557073 5.03975 17.8477317 4.933825 40.0216098 65.777525 39.7295854 65.883925"></polyline>
                        <polyline id="Fill-153" fill="#737676" mask="url(#mask-2)" points="17.8477317 4.933825 18.1397561 4.827425 40.3136341 65.6716 40.0216098 65.777525"></polyline>
                        <polyline id="Fill-154" fill="#747777" mask="url(#mask-2)" points="18.1397561 4.827425 18.4313049 4.7215 40.6051829 65.565675 40.3131585 65.6716"></polyline>
                        <polyline id="Fill-155" fill="#757777" mask="url(#mask-2)" points="18.4313049 4.7215 18.7233293 4.615575 40.8972073 65.459275 40.6051829 65.565675"></polyline>
                        <polyline id="Fill-156" fill="#757879" mask="url(#mask-2)" points="18.7233293 4.615575 19.0153537 4.509175 41.1892317 65.35335 40.8972073 65.459275"></polyline>
                        <polyline id="Fill-157" fill="#767A7A" mask="url(#mask-2)" points="19.0153537 4.509175 19.3069024 4.40325 41.4807805 65.24695 41.1892317 65.35335"></polyline>
                        <polyline id="Fill-158" fill="#777B7B" mask="url(#mask-2)" points="19.3069024 4.40325 19.5989268 4.29685 41.7728049 65.141025 41.4807805 65.24695"></polyline>
                        <polyline id="Fill-159" fill="#787B7B" mask="url(#mask-2)" points="19.5989268 4.29685 19.8909512 4.190925 42.0648293 65.0351 41.7728049 65.141025"></polyline>
                        <polyline id="Fill-160" fill="#797C7C" mask="url(#mask-2)" points="19.8909512 4.190925 20.1829756 4.085 42.3568537 64.9287 42.0648293 65.0351"></polyline>
                        <polyline id="Fill-161" fill="#797D7D" mask="url(#mask-2)" points="20.1829756 4.085 20.4745244 3.9786 42.6484024 64.822775 42.3568537 64.9287"></polyline>
                        <polyline id="Fill-162" fill="#7A7E7E" mask="url(#mask-2)" points="20.4745244 3.9786 20.7665488 3.872675 42.9404268 64.716375 42.6484024 64.822775"></polyline>
                        <polyline id="Fill-163" fill="#7B7E7F" mask="url(#mask-2)" points="20.7665488 3.872675 21.0585732 3.76675 43.2324512 64.61045 42.9404268 64.716375"></polyline>
                        <polyline id="Fill-164" fill="#7B7F81" mask="url(#mask-2)" points="21.0585732 3.76675 21.3505976 3.66035 43.524 64.504525 43.2324512 64.61045"></polyline>
                        <polyline id="Fill-165" fill="#7C7F82" mask="url(#mask-2)" points="21.3505976 3.66035 21.6421463 3.554425 43.8160244 64.398125 43.524 64.504525"></polyline>
                        <polyline id="Fill-166" fill="#7D8082" mask="url(#mask-2)" points="21.6421463 3.554425 21.9341707 3.448025 44.1080488 64.2922 43.8160244 64.398125"></polyline>
                        <polyline id="Fill-167" fill="#7E8183" mask="url(#mask-2)" points="21.9341707 3.448025 22.2261951 3.3421 44.4000732 64.186275 44.1080488 64.2922"></polyline>
                        <polyline id="Fill-168" fill="#7E8183" mask="url(#mask-2)" points="22.2261951 3.3421 22.5177439 3.236175 44.691622 64.079875 44.4000732 64.186275"></polyline>
                        <polyline id="Fill-169" fill="#7F8285" mask="url(#mask-2)" points="22.5177439 3.236175 22.8097683 3.129775 44.9836463 63.97395 44.691622 64.079875"></polyline>
                        <polyline id="Fill-170" fill="#808486" mask="url(#mask-2)" points="22.8097683 3.129775 23.1017927 3.02385 45.2756707 63.86755 44.9836463 63.97395"></polyline>
                        <polyline id="Fill-171" fill="#818486" mask="url(#mask-2)" points="23.1017927 3.02385 23.3938171 2.917925 45.5676951 63.761625 45.2756707 63.86755"></polyline>
                        <polyline id="Fill-172" fill="#818587" mask="url(#mask-2)" points="23.3938171 2.917925 23.6853659 2.811525 45.8592439 63.6557 45.5676951 63.761625"></polyline>
                        <polyline id="Fill-173" fill="#838688" mask="url(#mask-2)" points="23.6853659 2.811525 23.9773902 2.7056 46.1512683 63.5493 45.8592439 63.6557"></polyline>
                        <polyline id="Fill-174" fill="#838789" mask="url(#mask-2)" points="23.9773902 2.7056 24.2694146 2.5992 46.4432927 63.443375 46.1512683 63.5493"></polyline>
                        <polyline id="Fill-175" fill="#84888A" mask="url(#mask-2)" points="24.2694146 2.5992 24.561439 2.493275 46.7348415 63.33745 46.4432927 63.443375"></polyline>
                        <polyline id="Fill-176" fill="#85898B" mask="url(#mask-2)" points="24.561439 2.493275 24.8529878 2.38735 47.0268659 63.23105 46.7348415 63.33745"></polyline>
                        <polyline id="Fill-177" fill="#868A8C" mask="url(#mask-2)" points="24.8529878 2.38735 25.1450122 2.28095 47.3188902 63.125125 47.0268659 63.23105"></polyline>
                        <polyline id="Fill-178" fill="#868A8C" mask="url(#mask-2)" points="25.1450122 2.28095 25.4370366 2.175025 47.6109146 63.018725 47.3188902 63.125125"></polyline>
                        <polyline id="Fill-179" fill="#878B8D" mask="url(#mask-2)" points="25.4370366 2.175025 25.7285854 2.0691 47.9024634 62.9128 47.6109146 63.018725"></polyline>
                        <polyline id="Fill-180" fill="#888C8E" mask="url(#mask-2)" points="25.7285854 2.0691 26.0206098 1.9627 48.1944878 62.806875 47.9024634 62.9128"></polyline>
                        <polyline id="Fill-181" fill="#898D8F" mask="url(#mask-2)" points="26.0206098 1.9627 26.3126341 1.856775 48.4865122 62.700475 48.1944878 62.806875"></polyline>
                        <polyline id="Fill-182" fill="#8A8E90" mask="url(#mask-2)" points="26.3126341 1.856775 26.6046585 1.750375 48.7785366 62.59455 48.4865122 62.700475"></polyline>
                        <polyline id="Fill-183" fill="#8B8F91" mask="url(#mask-2)" points="26.6046585 1.750375 26.8962073 1.64445 49.0700854 62.488625 48.7785366 62.59455"></polyline>
                        <polyline id="Fill-184" fill="#8C8F92" mask="url(#mask-2)" points="26.8962073 1.64445 27.1882317 1.538525 49.3621098 62.382225 49.0700854 62.488625"></polyline>
                        <polyline id="Fill-185" fill="#8E9192" mask="url(#mask-2)" points="27.1882317 1.538525 27.4802561 1.432125 49.6541341 62.2763 49.3621098 62.382225"></polyline>
                        <polyline id="Fill-186" fill="#8F9193" mask="url(#mask-2)" points="27.4802561 1.432125 27.7722805 1.3262 49.9456829 62.1699 49.6541341 62.2763"></polyline>
                        <polyline id="Fill-187" fill="#8F9294" mask="url(#mask-2)" points="27.7722805 1.3262 28.0638293 1.220275 50.2377073 62.063975 49.9456829 62.1699"></polyline>
                        <polyline id="Fill-188" fill="#909395" mask="url(#mask-2)" points="28.0638293 1.220275 28.3558537 1.113875 50.5297317 61.95805 50.2377073 62.063975"></polyline>
                        <polyline id="Fill-189" fill="#919496" mask="url(#mask-2)" points="28.3558537 1.113875 28.647878 1.00795 50.8217561 61.85165 50.5297317 61.95805"></polyline>
                        <polyline id="Fill-190" fill="#929597" mask="url(#mask-2)" points="28.647878 1.00795 28.9394268 0.90155 51.1133049 61.745725 50.8217561 61.85165"></polyline>
                        <polyline id="Fill-191" fill="#939698" mask="url(#mask-2)" points="28.9394268 0.90155 29.2314512 0.795625 51.4053293 61.639325 51.1133049 61.745725"></polyline>
                        <polyline id="Fill-192" fill="#939799" mask="url(#mask-2)" points="29.2314512 0.795625 29.5234756 0.6897 51.6973537 61.5334 51.4053293 61.639325"></polyline>
                        <polyline id="Fill-193" fill="#93989A" mask="url(#mask-2)" points="29.5234756 0.6897 29.8155 0.5833 51.989378 61.427475 51.6973537 61.5334"></polyline>
                        <polyline id="Fill-194" fill="#94999B" mask="url(#mask-2)" points="29.8155 0.5833 30.1070488 0.477375 52.2809268 61.321075 51.989378 61.427475"></polyline>
                        <polyline id="Fill-195" fill="#959A9C" mask="url(#mask-2)" points="30.1070488 0.477375 30.3990732 0.370975 52.5729512 61.21515 52.2809268 61.321075"></polyline>
                        <polyline id="Fill-196" fill="#969B9D" mask="url(#mask-2)" points="30.3990732 0.370975 30.6910976 0.26505 52.8649756 61.109225 52.5729512 61.21515"></polyline>
                        <polyline id="Fill-197" fill="#979C9E" mask="url(#mask-2)" points="30.6910976 0.26505 30.983122 0.159125 53.1565244 61.002825 52.8649756 61.109225"></polyline>
                        <polyline id="Fill-198" fill="#989D9F" mask="url(#mask-2)" points="30.983122 0.159125 31.2746707 0.052725 53.4485488 60.8969 53.1565244 61.002825"></polyline>
                        <polyline id="Fill-199" fill="#999EA0" mask="url(#mask-2)" points="31.2746707 0.052725 31.5666951 -0.0532 53.7405732 60.7905 53.4485488 60.8969"></polyline>
                        <polyline id="Fill-200" fill="#9A9FA1" mask="url(#mask-2)" points="31.5666951 -0.0532 31.8587195 -0.159125 54.0325976 60.684575 53.7405732 60.7905"></polyline>
                        <polyline id="Fill-201" fill="#9B9FA2" mask="url(#mask-2)" points="31.8587195 -0.159125 32.1502683 -0.265525 54.3241463 60.57865 54.0325976 60.684575"></polyline>
                        <polyline id="Fill-202" fill="#9DA1A3" mask="url(#mask-2)" points="32.1502683 -0.265525 32.4422927 -0.37145 54.6161707 60.47225 54.3241463 60.57865"></polyline>
                        <polyline id="Fill-203" fill="#9EA2A4" mask="url(#mask-2)" points="32.4422927 -0.37145 32.7343171 -0.47785 54.9081951 60.366325 54.6161707 60.47225"></polyline>
                        <polyline id="Fill-204" fill="#9FA3A5" mask="url(#mask-2)" points="32.7343171 -0.47785 33.0263415 -0.583775 55.2002195 60.2604 54.9081951 60.366325"></polyline>
                        <polyline id="Fill-205" fill="#A0A4A6" mask="url(#mask-2)" points="33.0263415 -0.583775 33.3178902 -0.6897 55.4917683 60.154 55.2002195 60.2604"></polyline>
                        <polyline id="Fill-206" fill="#A1A5A7" mask="url(#mask-2)" points="33.3178902 -0.6897 33.6099146 -0.7961 55.7837927 60.048075 55.4917683 60.154"></polyline>
                        <polyline id="Fill-207" fill="#A2A6A8" mask="url(#mask-2)" points="33.6099146 -0.7961 33.901939 -0.902025 56.0758171 59.941675 55.7837927 60.048075"></polyline>
                        <polyline id="Fill-208" fill="#A3A7A9" mask="url(#mask-2)" points="33.901939 -0.902025 34.1939634 -1.00795 56.3673659 59.83575 56.0758171 59.941675"></polyline>
                        <polyline id="Fill-209" fill="#A4A8A9" mask="url(#mask-2)" points="34.1939634 -1.00795 34.4855122 -1.11435 56.6593902 59.729825 56.3673659 59.83575"></polyline>
                        <polyline id="Fill-210" fill="#A6A9AA" mask="url(#mask-2)" points="34.4855122 -1.11435 34.7775366 -1.220275 56.9514146 59.623425 56.6593902 59.729825"></polyline>
                        <polyline id="Fill-211" fill="#A7AAAB" mask="url(#mask-2)" points="34.7775366 -1.220275 35.069561 -1.326675 57.243439 59.5175 56.9514146 59.623425"></polyline>
                        <polyline id="Fill-212" fill="#A8ABAC" mask="url(#mask-2)" points="35.069561 -1.326675 35.3611098 -1.4326 57.5349878 59.411575 57.243439 59.5175"></polyline>
                        <polyline id="Fill-213" fill="#A8ACAD" mask="url(#mask-2)" points="35.3611098 -1.4326 35.6531341 -1.538525 57.8270122 59.305175 57.5349878 59.411575"></polyline>
                        <polyline id="Fill-214" fill="#A9ADAE" mask="url(#mask-2)" points="35.6531341 -1.538525 35.9451585 -1.644925 58.1190366 59.19925 57.8270122 59.305175"></polyline>
                        <polyline id="Fill-215" fill="#AAAEAF" mask="url(#mask-2)" points="35.9451585 -1.644925 36.2371829 -1.75085 58.4105854 59.09285 58.1190366 59.19925"></polyline>
                        <polyline id="Fill-216" fill="#ABAFAF" mask="url(#mask-2)" points="36.2371829 -1.75085 36.5287317 -1.856775 58.7026098 58.986925 58.4105854 59.09285"></polyline>
                        <polyline id="Fill-217" fill="#ACB0B0" mask="url(#mask-2)" points="36.5287317 -1.856775 36.8207561 -1.963175 58.9946341 58.881 58.7026098 58.986925"></polyline>
                        <polyline id="Fill-218" fill="#ADB0B1" mask="url(#mask-2)" points="36.8207561 -1.963175 37.1127805 -2.0691 59.2866585 58.7746 58.9946341 58.881"></polyline>
                        <polyline id="Fill-219" fill="#ADB0B1" mask="url(#mask-2)" points="37.1123049 -2.0691 3810.91924 -1373.86197 3833.09312 -1313.01827 59.2861829 58.7746"></polyline>
                    </g>
                    <polyline id="Fill-221" fill="#ADB0B1" points="205.978658 52 200 49.8073178 210.016125 9 216 10.5051584 205.984349 51.3124763 205.978658 52"></polyline>
                    <polyline id="Fill-222" fill="#888C8C" points="324 95.2249505 200.04489 49 197 204.430178 289.568768 241 324 95.2249505"></polyline>
                    <polyline id="Fill-223" fill="#888C8C" points="306 107.658166 99.9263988 163 3 122.441932 199.703574 49 306 107.658166"></polyline>
                    <polyline id="Fill-224" fill="#BBBDBB" points="3 122.630998 37.7074008 222.253449 107.122202 264 292.228657 242.178414 322 98.8549145 320.256547 95 104.237209 161.167809 3 122.630998"></polyline>
                    <polyline id="Fill-225" fill="#AEB0B0" points="107.601144 264 292.56262 242.167499 324 96 100 165.158323 107.601144 264"></polyline>
                    <path d="M100,165.284906 L107.599298,264 L120.45826,262.483129 C137.698693,236.24269 159.438385,212.99807 185.323968,204.036209 C233.230418,187.449703 262.754166,139.059635 277,109 L100,165.284906" id="Fill-226" fill="#C8C9C6"></path>
                    <polyline id="Fill-227" fill="#DADBD8" points="200.146647 49 3 122.37843 99.1923255 166 325 95.4642699 200.146647 49"></polyline>
                    <polyline id="Fill-228" fill="#888C8C" points="193.921516 130.416494 201 55 16 123.063199 100.01287 159 193.921516 130.416494"></polyline>
                    <polyline id="Fill-229" fill="#787A7B" points="119 174.720655 119.476132 254 282.782849 233.112029 310 111 119 174.720655"></polyline>
                    <path d="M119,175.415263 L119.47443,255 L127.195775,254.004953 C143.277048,231.626868 162.790821,212.636139 185.500353,204.723415 C225.64945,190.732704 252.870335,154.237145 269,125 L119,175.415263" id="Fill-230" fill="#888C8C"></path>
                    <polyline id="Fill-231" fill="#888C8C" points="15 137 89.0965099 173.71308 99 250 39.1113576 216.624473 15 137"></polyline>
                    <path d="M211.154241,9.88556737 L361.696555,56 L367,38.1554791 L211.154241,0.00403941738 C211.154241,0.00403941738 206.538307,-0.284813312 206.032197,4.02271493 C205.526086,8.33024318 211.154241,9.88556737 211.154241,9.88556737" id="Fill-232" fill="#E36537"></path>
                    <path d="M364,49.3350779 C352.047011,43.594187 343.022628,42.042141 336.271278,40.1451426 C310.369477,32.8694772 284.497257,29.5461318 258.850718,20.9760553 C247.903036,17.3178325 236.926248,13.2743569 226.169417,9.33211211 C223.273255,8.27086768 212.599443,4.53876081 207.271841,1 C206.660642,1.59778958 206.176835,2.44841633 206.032265,3.68333639 C205.525079,8.01899005 211.165199,9.58446951 211.165199,9.58446951 L362.027556,56 L364,49.3350779" id="Fill-233" fill="#DC5B32"></path>
                    <path d="M367.381626,38 C367.381626,38 362.22887,39.9738846 360.509344,45.9221117 C358.789333,51.8698726 361.977055,55.4530746 361.977055,55.4530746 C361.977055,55.4530746 369.794494,58.8087716 371.858022,48.8959922 C371.858022,48.8959922 373.239854,39.2545403 367.381626,38" id="Fill-234" fill="#A84F2D"></path>
                    <path d="M306.64922,23.4600685 L302.687201,22.5003553 C302.372922,22.4301898 302.058642,22.3590825 301.743411,22.2922133 C296.737755,21.2378474 291.533356,20.0916541 286.628022,18.9482862 C280.747517,17.5769982 275.233118,15.5407863 268.863839,15.0279661 C264.684059,14.6912659 260.793835,13.0741633 256.924056,11.4165624 L239.517419,7.20145302 C238.260299,7.0992657 237.013165,6.94527835 235.79218,6.65472729 C234.483235,6.34298532 233.281269,5.90174328 232.098797,5.40493394 L222.169264,3 C222.076074,3.22556557 222.011411,3.45113114 222,3.69035307 C232.113061,8.49221549 243.360097,8.64855739 254.086978,12.2561937 C261.933515,14.8951696 269.990206,17.4051163 278.313631,18.2786531 C285.340473,19.0151553 291.672666,20.7005398 298.487928,22.6044262 C309.197217,25.5956423 319.933132,29.123695 330.681885,31.9006473 C336.36222,33.3680007 340.669899,36.384175 346.988779,35.9594148 C347.160896,34.7538869 345.320861,33.4165044 343.669584,32.4257112 L325.624403,28.0552017 C319.127225,27.1006685 312.947655,25.0950657 306.64922,23.4600685" id="Fill-235" fill="#E77E55"></path>
                    <polyline id="Fill-236" fill="#BBBDBB" points="97.6692853 208 19 169.866759 22.331669 163 101 201.133718 97.6692853 208"></polyline>
                    <polyline id="Fill-237" fill="#BBBDBB" points="102 234 33.6970429 202.600012 31 193 100.430108 224.917704 102 234"></polyline>
                    <polyline id="Fill-238" fill="#BBBDBB" points="46.661797 227 25 137.826042 32.338203 136 54 225.17348 46.661797 227"></polyline>
                    <polyline id="Fill-239" fill="#BBBDBB" points="65.4899434 238 47 149.536718 54.5100566 148 73 236.463282 65.4899434 238"></polyline>
                    <polyline id="Fill-240" fill="#BBBDBB" points="85.5595935 250 71 163.274982 78.4404065 162 93 248.724541 85.5595935 250"></polyline>
                    <polyline id="Fill-241" fill="#757777" points="32 271 35.9726328 282.711974 123.77843 342 279 292.638553 276.650783 288.475333 122.093619 332.466312 32 271"></polyline>
                    <polyline id="Fill-242" fill="#A2A5A5" points="200.096175 55 302 94.4969294 193 130 200.096175 55"></polyline>
                    <polyline id="Fill-243" fill="#A2A5A5" points="200 64 24 126.38852 25.4364102 127 199.865738 65.422686 200 64"></polyline>
                    <polyline id="Fill-244" fill="#B5B7B6" points="200.13472 64 290 99.4260522 288.25963 100 200 65.4413426 200.13472 64"></polyline>
                    <polyline id="Fill-245" fill="#7C7F7F" points="199 65 192.897578 130.35503 99.2734417 159 25 127.0645 199 65"></polyline>
                    <polyline id="Fill-246" fill="#949797" points="199.112471 65 287 99.1944455 193 130 199.112471 65"></polyline>
                    <path d="M345.389611,51.5639457 C345.389611,51.5639457 342.262986,47.2126732 345.389611,43 L352,44.9394614 C352,44.9394614 348.833114,46.9711677 351.753697,53 L345.389611,51.5639457" id="Fill-247" fill="#ADB0B1"></path>
                    <path d="M366.63262,41.1631288 C366.63262,41.1631288 360.730429,46.8429267 363.972699,51.5353833 C367.214969,56.2283323 368.881074,48.1803926 368.881074,47.7495079 C368.881074,47.3186233 369.780455,39.80892 366.63262,41.1631288" id="Fill-248" fill="#ADB0B1"></path>
                    <path d="M215.458898,11 C215.458898,11 213.792104,7.39815067 216,5.8513734 L210.551902,4 C210.551902,4 207.643137,5.8513734 209.790148,9.06010335 C209.790148,9.06010335 210.626064,10.2066222 215.458898,11" id="Fill-249" fill="#ADB0B1"></path>
                    <polyline id="Fill-250" fill="#6C6E6E" points="199 65 198.42818 71.0736694 28.2993638 128 25 126.592121 199 65"></polyline>
                    <polyline id="Fill-251" fill="#7C7F7F" points="199 71.0709262 278.186371 102 287 99.1041256 199.569781 65 199 71.0709262"></polyline>
                    <path d="M296.504746,197.324985 L283.135825,199.585764 L290.319169,163.309447 L308,159.065743 L306.215827,151.690234 L291.94149,155.116491 L300.980412,109.46799 L293.50764,108 L283.790847,157.072388 L268.273111,160.797364 L275.300792,116.065882 L267.775656,114.892344 L260.261946,162.720544 L247.380483,165.812521 L253.410873,123.600234 L245.870505,122.531485 L239.413588,167.724321 L224.435198,171.319853 L227.730301,131.437573 L220.139473,130.815005 L216.637772,173.19135 L203.888646,176.252032 L207.051412,138.076717 L199.460107,137.452726 L196.090743,178.123529 L182.694212,181.338787 L184.419357,147.450797 L176.812344,147.06673 L174.973903,183.191792 L162.770788,186.121133 L164.897705,155.092783 L157.29926,154.575952 L155.008587,187.984095 L140.2387,191.529365 L141.103177,163.983698 L133.490451,163.74662 L132.560758,193.372413 L106,199.747452 L107.784173,207.122961 L132.314173,201.234882 L131.561088,225.215364 L114.108752,228.166516 L115.38357,235.645392 L131.318311,232.951233 L130.634251,254.762922 L138.246976,255 L138.979592,231.655362 L152.167144,229.425877 L150.634793,251.778104 L158.233237,252.294935 L159.890786,228.119575 L172.798431,225.937505 L171.575977,249.947385 L179.18299,250.331926 L180.490654,224.636893 L192.403389,222.6222 L190.149371,249.827423 L197.740199,250.451888 L200.15464,221.311631 L212.839025,219.166545 L210.618806,246.035117 L218.209634,246.657685 L220.589801,217.85645 L232.539666,215.835593 L228.25727,245.812263 L235.797639,246.881012 L240.424207,214.502264 L252.445954,212.469554 L248.258288,239.121436 L255.783424,240.294974 L260.365245,211.130535 L273.528044,208.904843 L267.801838,237.822246 L275.27461,239.290236 L281.560155,207.546858 L297.779564,204.80386 L296.504746,197.324985 Z M139.222369,223.919967 L139.992115,199.391834 L154.464957,195.918161 L152.700778,221.640696 L139.222369,223.919967 Z M160.424419,220.334868 L162.226205,194.055199 L174.571655,191.092193 L173.193062,218.176032 L160.424419,220.334868 Z M180.885285,216.875419 L182.29244,189.238714 L195.430485,186.085571 L193.050318,214.818527 L180.885285,216.875419 Z M200.801093,213.507483 L203.228388,184.2136 L215.979893,181.152917 L213.483574,211.363346 L200.801093,213.507483 Z M221.23435,210.052777 L223.776844,179.28142 L238.259207,175.805376 L233.666437,207.950365 L221.23435,210.052777 Z M241.550502,206.61751 L246.225626,173.893102 L258.987604,170.830049 L253.687449,204.565359 L241.550502,206.61751 Z M261.607216,203.225866 L266.999246,168.906869 L282.169001,165.265818 L275.10419,200.94375 L261.607216,203.225866 Z" id="Fill-252" fill="#AEB0B0"></path>
                    <path d="M207,48 C204.462494,51.5764828 200.384306,48.0010406 200.383318,48 L200,49.6238293 L206.226942,52 L206.23287,51.2549428 L207,48" id="Fill-253" fill="#757777"></path>
                    <path d="M350,48.3544074 C350,49.2631442 348.540512,50 347.636461,50 C346.732942,50 346,49.2631442 346,48.3544074 C346,47.4451512 346.732942,46 347.636461,46 C348.540512,46 350,47.4451512 350,48.3544074" id="Fill-254" fill="#888C8C"></path>
                    <path d="M349,48.5002366 C349,49.328443 348.328664,50 347.5,50 C346.671824,50 346,49.328443 346,48.5002366 C346,47.671557 346.671824,47 347.5,47 C348.328664,47 349,47.671557 349,48.5002366" id="Fill-255" fill="#DADBD8"></path>
                    <path d="M214,7.76598715 C214,8.4475007 212.90483,9 212.227175,9 C211.54952,9 211,8.4475007 211,7.76598715 C211,7.08405473 211.54952,6 212.227175,6 C212.90483,6 214,7.08405473 214,7.76598715" id="Fill-256" fill="#888C8C"></path>
                    <path d="M214,7.50050899 C214,8.32863929 213.328311,9 212.5,9 C211.671689,9 211,8.32863929 211,7.50050899 C211,6.6718697 211.671689,6 212.5,6 C213.328311,6 214,6.6718697 214,7.50050899" id="Fill-257" fill="#DADBD8"></path>
                    <polyline id="Fill-258" fill="#E8E8E5" points="105.614017 247.910662 101 183.246923 101.193362 182 106.078975 248.175722 107 264 105.614017 247.910662"></polyline>
                    <path d="M87.2858792,158 C87.2858792,158 84.0620327,159.281854 85.2714498,164.480905 C85.2714498,164.480905 98.1673105,171.16628 97.7643297,181.097564 L100.382518,184 L103.589752,183.805492 L105.42144,181.097564 C105.42144,181.097564 102.109308,171.694772 116.258254,169.278132 C116.258254,169.278132 124.677183,161.456546 116.258254,158.519953 C116.258254,158.519953 109.048742,161.698969 103.00308,162.064739 C96.9583681,162.430508 87.2858792,158 87.2858792,158" id="Fill-259" fill="#E36537"></path>
                    <path d="M97.824616,180.998787 L98.8702705,182 C100.570312,164.336326 85,164 85,164 C85,164 98.2382976,170.839117 97.824616,180.998787" id="Fill-260" fill="#DC5B32"></path>
                    <path d="M116,169.023879 C98.1788122,168.379262 105.481528,181 105.481528,181 C105.481528,181 102.266693,171.472557 116,169.023879" id="Fill-261" fill="#DC5B32"></path>
                    <path d="M97.2507052,166.061043 C99.4319191,166.713517 101.105806,169.263567 103.080584,168.977747 C104.238867,168.809828 107.847607,166.192788 108,165.120963 C106.298848,164.570313 103.613228,166.089178 101.31419,165.89893 C100.060479,165.794873 95.7175261,164.483674 96.0145217,165.89893 L97.2507052,166.061043" id="Fill-262" fill="#E77E55"></path>
                    <path d="M98,180.250932 C98,180.250932 98.5668237,184.11561 101.789735,183.99734 C105.012646,183.87958 106,180.250932 106,180.250932 C106,180.250932 103.636499,183.497241 102,182.923733 C100.363501,182.350226 99.7436152,182.541395 99.1237292,180.948318 C98.5038433,179.355241 98,180.250932 98,180.250932" id="Fill-263" fill="#DC5B32"></path>
                    <path d="M105.004975,179.010597 C105.004975,179.010597 106.212065,180.366287 104,182 L105.333955,181.405562 L106,180.495149 C106,180.495149 105.169154,178.853493 105.004975,179.010597" id="Fill-264" fill="#DC5B32"></path>
                    <path d="M17,118.364156 C17,118.364156 15.5657537,116.297683 13.1753431,117.251513 C10.7849325,118.205343 4.72954441,120.271816 4.72954441,120.271816 C4.72954441,120.271816 -1.32632175,121.066834 0.267125943,125.040968 C1.86105172,129.015101 7.62672204,136 7.62672204,136 C7.62672204,136 6.48219345,127.901504 11.5818954,130.286557 C11.5818954,130.286557 11.8209364,125.875092 14.2911867,125.517883 C14.2911867,125.517883 7.9164398,125.040491 9.51036557,122.33829 C11.1038133,119.636088 17,118.364156 17,118.364156" id="Fill-265" fill="#E36537"></path>
                    <path d="M7.01718266,130.839592 C6.91363728,132.512293 7.29378979,134.274612 7.73519448,135.697663 C7.89026948,135.891671 7.97825874,136 7.97825874,136 C7.97825874,136 6.81446706,127.638464 12,130.100984 C12,130.100984 7.24323242,127.187421 7.01718266,130.839592" id="Fill-266" fill="#DC5B32"></path>
                    <path d="M2.21889019,121.742446 C0.45980496,122.309247 0.637291138,126.143955 2.5408304,125.99582 C3.3597319,125.931733 3.06145652,124.252341 3.3883269,123.515342 C3.7906289,122.606569 4.69087824,122.083893 5,121.215568 C4.3221014,120.665051 3.57320833,121.324305 2.89678879,121.479795 L2.21889019,121.742446" id="Fill-267" fill="#E77E55"></path>
                    <path d="M253,124.075755 L245.342806,123 L239,167 C242.311833,163.408582 245.442871,159.721234 248.399883,155.990455 L253,124.075755" id="Fill-268" fill="#C8C9C6"></path>
                    <path d="M267.702455,115 L265,132 C268.37856,126.438209 271.375123,121.03494 274,115.970462 L267.702455,115" id="Fill-269" fill="#C8C9C6"></path>
                    <path d="M223.655115,181.929104 L223.848025,179.585302 L227.359464,178.741133 C231.090487,175.424826 234.635268,171.945484 238,168.359196 L224.506777,171.604205 L227.803871,131.624095 L220.208455,131 L216.704638,173.480293 L203.947807,176.548483 L207.112484,138.279525 L199.516592,137.654004 L196.145191,178.42457 L182.740564,181.647715 L184.466751,147.6766 L176.855141,147.29159 L175.015589,183.505265 L162.805098,186.441792 L164.933301,155.337331 L157.330264,154.819232 L155.038207,188.309324 L140.259393,191.863291 L141.124392,164.250055 L133.507065,164.012395 L132.57681,193.710859 L106,200.101536 L107.785251,207.495137 L132.330076,201.592614 L131.576536,225.63192 L114.113653,228.590311 L115.389241,236.087532 L131.333612,233.386764 L130.875868,248 C133.437523,244.652797 136.08301,241.403035 138.806137,238.270201 L138.999524,232.087715 L145.506546,230.985923 C150.337394,226.037367 155.395448,221.500914 160.678325,217.51298 L162.260187,194.39532 L174.613097,191.425046 L173.715232,209.101718 C176.275458,207.725667 178.883316,206.490786 181.534519,205.398026 L182.338549,189.56702 L195.484534,186.406143 L194.327074,200.404314 C197.049249,199.195576 199.704739,197.882742 202.29926,196.481024 L203.287149,184.52958 L216.046362,181.461389 L215.488114,188.23042 C218.296979,186.225046 221.020583,184.120804 223.655115,181.929104 Z M152.729002,222.048483 L139.242447,224.333346 L140.012659,199.745046 L154.494248,196.262852 L152.729002,222.048483 Z" id="Fill-270" fill="#C8C9C6"></path>
                    <path d="M216.009236,6 C216.009236,6 214.603806,10.1055272 217,12 L215.549447,11.4275441 C215.549447,11.4275441 214.047936,7.55431056 216.009236,6" id="Fill-271" fill="#99442A"></path>
                    <path d="M352.46793,45 C352.46793,45 349.583445,51.0511544 356,54 L352.227055,52.8718877 C352.227055,52.8718877 349.311997,48.0656406 352.46793,45" id="Fill-272" fill="#99442A"></path>
                    <path d="M14,127 C14,127 55.7909006,146.653095 85,159 L14,127" id="Fill-273" fill="#F9F7F5"></path>
                    <path d="M127,158 C127,158 212.931908,130.932763 313,100 C313,100 199.654652,135.470968 127,158" id="Fill-274" fill="#F9F7F5"></path>
                    <path d="M122,332 C122,332 170.333049,317.980554 253,295 C253,295 163.3556,320.485393 122,332" id="Fill-275" fill="#D9DAD8"></path>
                    <path d="M32,271 C32,271 75.1272385,301.5 122,332 C122,332 77,301.5 32,271" id="Fill-276" fill="#D9DAD8"></path>
                    <path d="M319.990415,92 C319.990415,92 321.006867,95.5664145 326,94.7290091 L325.203863,96 L319,93.7140022 L319.990415,92" id="Fill-277" fill="#757777"></path>
                </g>
                <g id="Group" stroke="#EC6608" stroke-dasharray="4,9" stroke-linecap="square" stroke-width="4">
                    <path d="M0.5,135.5 L68.5,135.5" id="Line"></path>
                    <path d="M139,0 L139,68" id="Line"></path>
                    <path d="M42,40 L90.0832611,88.0832611" id="Line"></path>
                    <path d="M43,233.083261 L91.0832611,185" id="Line"></path>
                </g>
            </g>
        </g>
    </g>
</svg>