<?xml version="1.0" encoding="UTF-8"?><svg id="b" xmlns="http://www.w3.org/2000/svg" viewBox="0 0 481.226 110.099"><defs><style>.d{fill:#f96700;}</style></defs><g id="c"><polygon points="24.146 0 481.226 0 457.08 110.099 0 110.099 24.146 0"/><polygon class="d" points="51.874 28.791 59.737 24.178 50.337 12.642 86.642 28.791 51.874 28.791"/><path class="d" d="M127.817,29.29l-13.79,17.3-5.22-17.3h-15.58l-12.82,52.19h15.73l6.18-25.35,5.67,17.15h.22l14.24-17.15-6.18,25.35h15.88l12.75-52.19h-17.08Z"/><path class="d" d="M171.287,40.78l-10.37,21.32-.59-21.32h-15.66l4.1,39.51c-.67.37-1.42.52-2.16.52-1.49,0-3.43-.6-5.52-2.09l-5.22,11.34c2.99,1.86,6.71,2.9,10.81,2.9,8.2,0,13.05-3.35,18.42-12.75l22.37-39.43h-16.18Z"/><path class="d" d="M224.587,34.44c-3.43-3.43-8.94-5.15-17.14-5.15h-15.21l-12.83,52.19h16.11l3.5-14.46h5.07c8.05,0,14.54-2.31,18.86-6.71,4.03-4.03,5.82-9.62,5.82-15.36,0-4.25-1.57-7.9-4.18-10.51ZM210.577,52.78c-1.49,1.49-3.81,2.09-6.49,2.09h-2.09l2.99-12.45h2.08c1.64,0,3.36.44,4.33,1.41.74.75,1.26,1.79,1.26,3.43,0,1.72-.59,4.03-2.08,5.52Z"/><path class="d" d="M257.167,28.25c-7.15,0-13.57,2.91-18.19,7.53-6.49,6.49-9.69,16.48-9.69,24.83,0,13.57,9.17,21.92,22.07,21.92,7.15,0,13.57-2.99,18.19-7.61,6.41-6.41,9.62-16.4,9.62-24.75,0-13.57-9.1-21.92-22-21.92ZM258.067,65.75c-1.64,1.64-3.58,2.54-5.74,2.54-4.4,0-6.94-3.06-6.94-8.73,0-4.47,1.87-11.33,5.07-14.54,1.57-1.64,3.51-2.53,5.74-2.53,4.33,0,6.94,3.13,6.94,8.8,0,4.47-1.87,11.25-5.07,14.46Z"/><path class="d" d="M337.987,29.29l-12.08,26.02-.52-26.17h-13.65l-13.04,26.17.37-26.02h-16.55l1.42,52.49h14.76l13.27-24.53,1.19,24.53h14.76l26.99-52.49h-16.92Z"/><path class="d" d="M391.737,43.01l3.43-13.72h-38.25l-12.82,52.19h38.62l3.35-13.72h-22.73l1.56-6.26h20.65l3.06-12.52h-20.65l1.41-5.97h22.37Z"/><path class="d" d="M438.487,45.02c0-4.1-1.2-7.82-3.96-10.51-3.35-3.35-9.09-5.22-17.89-5.22h-16.77l-12.83,52.19h16.11l3.65-15.21h.67c.75,0,1.49-.07,2.24-.07l4.62,15.28h17.15l-5.97-18.19c3.36-1.19,5.89-2.76,7.83-4.7,3.58-3.57,5.15-8.2,5.15-13.57ZM420.147,52.33c-1.27,1.27-3.29,2.09-6.27,2.09h-4.17l2.83-11.56h4.03c2.08,0,3.5.52,4.32,1.34.75.75,1.19,1.72,1.19,3.06,0,1.64-.67,3.8-1.93,5.07Z"/></g></svg>